<svg id="visual" viewBox="0 0 540 960" width="540" height="960" xmlns="http://www.w3.org/2000/svg" xmlns:xlink="http://www.w3.org/1999/xlink" version="1.1"><rect x="0" y="0" width="540" height="960" fill="#ffffff"></rect><defs><linearGradient id="grad1_0" x1="0%" y1="100%" x2="100%" y2="0%"><stop offset="30%" stop-color="#ffffff" stop-opacity="1"></stop><stop offset="70%" stop-color="#ffffff" stop-opacity="1"></stop></linearGradient></defs><defs><linearGradient id="grad2_0" x1="0%" y1="100%" x2="100%" y2="0%"><stop offset="30%" stop-color="#ffffff" stop-opacity="1"></stop><stop offset="70%" stop-color="#ffffff" stop-opacity="1"></stop></linearGradient></defs><g transform="translate(540, 960)"><path d="M-135 0C-134 -18.4 -133 -36.8 -124.7 -51.7C-116.5 -66.5 -101 -77.8 -87 -87C-72.9 -96.1 -60.2 -103.2 -45.9 -110.9C-31.7 -118.5 -15.8 -126.8 0 -135L0 0Z" fill="#82D8BE"></path></g><g transform="translate(0, 0)"><path d="M135 0C129 16 123 32 117.3 48.6C111.7 65.2 106.3 82.3 95.5 95.5C84.6 108.6 68.1 117.9 51.3 123.8C34.4 129.7 17.2 132.4 0 135L0 0Z" fill="#82D8BE"></path></g></svg>