<svg id="visual" viewBox="0 0 540 960" width="540" height="960" xmlns="http://www.w3.org/2000/svg" xmlns:xlink="http://www.w3.org/1999/xlink" version="1.1"><rect x="0" y="0" width="540" height="960" fill="#ffffff"></rect><path d="M495 960L499.5 954C504 948 513 936 520 924.2C527 912.3 532 900.7 531.5 888.8C531 877 525 865 524 853.2C523 841.3 527 829.7 529.8 817.8C532.7 806 534.3 794 527.7 782.2C521 770.3 506 758.7 499.2 746.8C492.3 735 493.7 723 498.7 711.2C503.7 699.3 512.3 687.7 513.7 675.8C515 664 509 652 508 640C507 628 511 616 513.2 604.2C515.3 592.3 515.7 580.7 518.8 568.8C522 557 528 545 526.5 533.2C525 521.3 516 509.7 516.5 497.8C517 486 527 474 526.2 462.2C525.3 450.3 513.7 438.7 513.3 426.8C513 415 524 403 529.3 391.2C534.7 379.3 534.3 367.7 530 355.8C525.7 344 517.3 332 512.8 320C508.3 308 507.7 296 511.3 284.2C515 272.3 523 260.7 520.5 248.8C518 237 505 225 500.2 213.2C495.3 201.3 498.7 189.7 502.5 177.8C506.3 166 510.7 154 513.2 142.2C515.7 130.3 516.3 118.7 514.5 106.8C512.7 95 508.3 83 505.8 71.2C503.3 59.3 502.7 47.7 504.5 35.8C506.3 24 510.7 12 512.8 6L515 0L540 0L540 6C540 12 540 24 540 35.8C540 47.7 540 59.3 540 71.2C540 83 540 95 540 106.8C540 118.7 540 130.3 540 142.2C540 154 540 166 540 177.8C540 189.7 540 201.3 540 213.2C540 225 540 237 540 248.8C540 260.7 540 272.3 540 284.2C540 296 540 308 540 320C540 332 540 344 540 355.8C540 367.7 540 379.3 540 391.2C540 403 540 415 540 426.8C540 438.7 540 450.3 540 462.2C540 474 540 486 540 497.8C540 509.7 540 521.3 540 533.2C540 545 540 557 540 568.8C540 580.7 540 592.3 540 604.2C540 616 540 628 540 640C540 652 540 664 540 675.8C540 687.7 540 699.3 540 711.2C540 723 540 735 540 746.8C540 758.7 540 770.3 540 782.2C540 794 540 806 540 817.8C540 829.7 540 841.3 540 853.2C540 865 540 877 540 888.8C540 900.7 540 912.3 540 924.2C540 936 540 948 540 954L540 960Z" fill="#82D8BE" stroke-linecap="round" stroke-linejoin="miter"></path></svg>