<svg id="visual" viewBox="0 0 540 960" width="540" height="960" xmlns="http://www.w3.org/2000/svg" xmlns:xlink="http://www.w3.org/1999/xlink" version="1.1"><rect x="0" y="0" width="540" height="960" fill="#ffffff"></rect><defs><linearGradient id="grad1_0" x1="0%" y1="0%" x2="100%" y2="100%"><stop offset="30%" stop-color="#82d8be" stop-opacity="1"></stop><stop offset="70%" stop-color="#82d8be" stop-opacity="1"></stop></linearGradient></defs><defs><linearGradient id="grad1_1" x1="0%" y1="0%" x2="100%" y2="100%"><stop offset="30%" stop-color="#82d8be" stop-opacity="1"></stop><stop offset="70%" stop-color="#9de0cb" stop-opacity="1"></stop></linearGradient></defs><defs><linearGradient id="grad1_2" x1="0%" y1="0%" x2="100%" y2="100%"><stop offset="30%" stop-color="#b7e8d8" stop-opacity="1"></stop><stop offset="70%" stop-color="#9de0cb" stop-opacity="1"></stop></linearGradient></defs><defs><linearGradient id="grad1_3" x1="0%" y1="0%" x2="100%" y2="100%"><stop offset="30%" stop-color="#b7e8d8" stop-opacity="1"></stop><stop offset="70%" stop-color="#cff0e5" stop-opacity="1"></stop></linearGradient></defs><defs><linearGradient id="grad1_4" x1="0%" y1="0%" x2="100%" y2="100%"><stop offset="30%" stop-color="#e7f8f2" stop-opacity="1"></stop><stop offset="70%" stop-color="#cff0e5" stop-opacity="1"></stop></linearGradient></defs><defs><linearGradient id="grad1_5" x1="0%" y1="0%" x2="100%" y2="100%"><stop offset="30%" stop-color="#e7f8f2" stop-opacity="1"></stop><stop offset="70%" stop-color="#ffffff" stop-opacity="1"></stop></linearGradient></defs><defs><linearGradient id="grad2_0" x1="0%" y1="0%" x2="100%" y2="100%"><stop offset="30%" stop-color="#82d8be" stop-opacity="1"></stop><stop offset="70%" stop-color="#82d8be" stop-opacity="1"></stop></linearGradient></defs><defs><linearGradient id="grad2_1" x1="0%" y1="0%" x2="100%" y2="100%"><stop offset="30%" stop-color="#9de0cb" stop-opacity="1"></stop><stop offset="70%" stop-color="#82d8be" stop-opacity="1"></stop></linearGradient></defs><defs><linearGradient id="grad2_2" x1="0%" y1="0%" x2="100%" y2="100%"><stop offset="30%" stop-color="#9de0cb" stop-opacity="1"></stop><stop offset="70%" stop-color="#b7e8d8" stop-opacity="1"></stop></linearGradient></defs><defs><linearGradient id="grad2_3" x1="0%" y1="0%" x2="100%" y2="100%"><stop offset="30%" stop-color="#cff0e5" stop-opacity="1"></stop><stop offset="70%" stop-color="#b7e8d8" stop-opacity="1"></stop></linearGradient></defs><defs><linearGradient id="grad2_4" x1="0%" y1="0%" x2="100%" y2="100%"><stop offset="30%" stop-color="#cff0e5" stop-opacity="1"></stop><stop offset="70%" stop-color="#e7f8f2" stop-opacity="1"></stop></linearGradient></defs><defs><linearGradient id="grad2_5" x1="0%" y1="0%" x2="100%" y2="100%"><stop offset="30%" stop-color="#ffffff" stop-opacity="1"></stop><stop offset="70%" stop-color="#e7f8f2" stop-opacity="1"></stop></linearGradient></defs><g transform="translate(540, 0)"><path d="M0 216C-26.1 207.1 -52.3 198.2 -78.1 188.5C-103.8 178.7 -129.2 168.1 -150.6 150.6C-172 133.2 -189.3 108.9 -199.6 82.7C-209.8 56.4 -212.9 28.2 -216 0L0 0Z" fill="#f3fbf8"></path><path d="M0 180C-21.8 172.6 -43.6 165.2 -65.1 157.1C-86.5 148.9 -107.7 140.1 -125.5 125.5C-143.3 111 -157.8 90.7 -166.3 68.9C-174.8 47 -177.4 23.5 -180 0L0 0Z" fill="#dbf4eb"></path><path d="M0 144C-17.4 138.1 -34.9 132.2 -52 125.6C-69.2 119.1 -86.2 112 -100.4 100.4C-114.7 88.8 -126.2 72.6 -133 55.1C-139.9 37.6 -141.9 18.8 -144 0L0 0Z" fill="#c3ecde"></path><path d="M0 108C-13.1 103.6 -26.1 99.1 -39 94.2C-51.9 89.4 -64.6 84 -75.3 75.3C-86 66.6 -94.7 54.4 -99.8 41.3C-104.9 28.2 -106.4 14.1 -108 0L0 0Z" fill="#aae4d1"></path><path d="M0 72C-8.7 69 -17.4 66.1 -26 62.8C-34.6 59.6 -43.1 56 -50.2 50.2C-57.3 44.4 -63.1 36.3 -66.5 27.6C-69.9 18.8 -71 9.4 -72 0L0 0Z" fill="#90dcc4"></path><path d="M0 36C-4.4 34.5 -8.7 33 -13 31.4C-17.3 29.8 -21.5 28 -25.1 25.1C-28.7 22.2 -31.6 18.1 -33.3 13.8C-35 9.4 -35.5 4.7 -36 0L0 0Z" fill="#82d8be"></path></g><g transform="translate(0, 960)"><path d="M0 -216C23.5 -193.5 47 -170.9 63.5 -153.4C80 -135.8 89.5 -123.2 114.6 -114.6C139.6 -105.9 180.1 -101.1 199.6 -82.7C219 -64.2 217.5 -32.1 216 0L0 0Z" fill="#f3fbf8"></path><path d="M0 -180C19.6 -161.2 39.2 -142.4 52.9 -127.8C66.7 -113.2 74.6 -102.7 95.5 -95.5C116.3 -88.2 150.1 -84.3 166.3 -68.9C182.5 -53.5 181.3 -26.8 180 0L0 0Z" fill="#dbf4eb"></path><path d="M0 -144C15.7 -129 31.3 -113.9 42.4 -102.2C53.4 -90.5 59.7 -82.2 76.4 -76.4C93 -70.6 120 -67.4 133 -55.1C146 -42.8 145 -21.4 144 0L0 0Z" fill="#c3ecde"></path><path d="M0 -108C11.8 -96.7 23.5 -85.5 31.8 -76.7C40 -67.9 44.8 -61.6 57.3 -57.3C69.8 -52.9 90 -50.6 99.8 -41.3C109.5 -32.1 108.8 -16.1 108 0L0 0Z" fill="#aae4d1"></path><path d="M0 -72C7.8 -64.5 15.7 -57 21.2 -51.1C26.7 -45.3 29.8 -41.1 38.2 -38.2C46.5 -35.3 60 -33.7 66.5 -27.6C73 -21.4 72.5 -10.7 72 0L0 0Z" fill="#90dcc4"></path><path d="M0 -36C3.9 -32.2 7.8 -28.5 10.6 -25.6C13.3 -22.6 14.9 -20.5 19.1 -19.1C23.3 -17.6 30 -16.9 33.3 -13.8C36.5 -10.7 36.3 -5.4 36 0L0 0Z" fill="#82d8be"></path></g></svg>