<svg id="visual" viewBox="0 0 414 500" width="414" height="500" xmlns="http://www.w3.org/2000/svg" xmlns:xlink="http://www.w3.org/1999/xlink" version="1.1"><rect x="0" y="0" width="414" height="500" fill="#ffffff"></rect><path d="M0 169L13.8 164.2C27.7 159.3 55.3 149.7 83 157.7C110.7 165.7 138.3 191.3 165.8 208.5C193.3 225.7 220.7 234.3 248.2 231.7C275.7 229 303.3 215 331 195.7C358.7 176.3 386.3 151.7 400.2 139.3L414 127L414 0L400.2 0C386.3 0 358.7 0 331 0C303.3 0 275.7 0 248.2 0C220.7 0 193.3 0 165.8 0C138.3 0 110.7 0 83 0C55.3 0 27.7 0 13.8 0L0 0Z" fill="#82D8BE" stroke-linecap="round" stroke-linejoin="miter"></path></svg>